<mxfile host="Electron" agent="Mozilla/5.0 (Windows NT 10.0; Win64; x64) AppleWebKit/537.36 (KHTML, like Gecko) draw.io/27.0.9 Chrome/134.0.6998.205 Electron/35.4.0 Safari/537.36" version="27.0.9">
  <diagram name="Overview" id="e4prlykMXOq9PS2ua3T9">
    <mxGraphModel dx="1737" dy="1043" grid="0" gridSize="10" guides="1" tooltips="1" connect="1" arrows="1" fold="1" page="1" pageScale="1" pageWidth="1169" pageHeight="827" math="0" shadow="0">
      <root>
        <mxCell id="0" />
        <mxCell id="1" parent="0" />
        <mxCell id="3Tm7QaIwgXdc5dik1Mwg-75" value="" style="rounded=0;whiteSpace=wrap;html=1;" vertex="1" parent="1">
          <mxGeometry x="34" y="9" width="1077" height="701" as="geometry" />
        </mxCell>
        <mxCell id="qLd2ae-LlCDvW55Pa13D-7" value="" style="whiteSpace=wrap;html=1;aspect=fixed;rounded=0;strokeColor=#6c8ebf;align=center;verticalAlign=middle;fontFamily=Helvetica;fontSize=12;fontColor=default;fillColor=#dae8fc;" parent="1" vertex="1">
          <mxGeometry x="56" y="37" width="200" height="200" as="geometry" />
        </mxCell>
        <mxCell id="dBhGKuAG7TfBqmYr6w3Z-1" style="edgeStyle=orthogonalEdgeStyle;rounded=0;orthogonalLoop=1;jettySize=auto;html=1;" parent="1" target="qLd2ae-LlCDvW55Pa13D-14" edge="1">
          <mxGeometry relative="1" as="geometry">
            <mxPoint x="642.9933608734141" y="228" as="sourcePoint" />
          </mxGeometry>
        </mxCell>
        <mxCell id="qLd2ae-LlCDvW55Pa13D-11" style="edgeStyle=orthogonalEdgeStyle;rounded=0;orthogonalLoop=1;jettySize=auto;html=1;" parent="1" source="qLd2ae-LlCDvW55Pa13D-4" edge="1">
          <mxGeometry relative="1" as="geometry">
            <mxPoint x="390.0066391265859" y="137" as="targetPoint" />
          </mxGeometry>
        </mxCell>
        <mxCell id="qLd2ae-LlCDvW55Pa13D-4" value="" style="shape=cylinder3;whiteSpace=wrap;html=1;boundedLbl=1;backgroundOutline=1;size=15;" parent="1" vertex="1">
          <mxGeometry x="116.63" y="84.5" width="78.75" height="105" as="geometry" />
        </mxCell>
        <mxCell id="qLd2ae-LlCDvW55Pa13D-8" value="&lt;b&gt;NYC Taxi data&lt;/b&gt;" style="text;html=1;align=center;verticalAlign=middle;whiteSpace=wrap;rounded=0;" parent="1" vertex="1">
          <mxGeometry x="61" y="45" width="60" height="30" as="geometry" />
        </mxCell>
        <mxCell id="qLd2ae-LlCDvW55Pa13D-9" value="&lt;i&gt;parquet&lt;/i&gt;" style="text;html=1;align=center;verticalAlign=middle;whiteSpace=wrap;rounded=0;" parent="1" vertex="1">
          <mxGeometry x="126.00999999999999" y="189.5" width="60" height="30" as="geometry" />
        </mxCell>
        <mxCell id="3Tm7QaIwgXdc5dik1Mwg-2" value="" style="shape=image;verticalLabelPosition=bottom;labelBackgroundColor=default;verticalAlign=top;aspect=fixed;imageAspect=0;image=https://upload.wikimedia.org/wikipedia/commons/thumb/c/c3/Python-logo-notext.svg/1200px-Python-logo-notext.svg.png;" vertex="1" parent="1">
          <mxGeometry x="302" y="64" width="42" height="42" as="geometry" />
        </mxCell>
        <mxCell id="3Tm7QaIwgXdc5dik1Mwg-3" value="&lt;i&gt;&lt;b&gt;Python&lt;/b&gt;&lt;/i&gt;" style="text;html=1;align=center;verticalAlign=middle;whiteSpace=wrap;rounded=0;" vertex="1" parent="1">
          <mxGeometry x="293" y="106" width="60" height="30" as="geometry" />
        </mxCell>
        <mxCell id="3Tm7QaIwgXdc5dik1Mwg-7" value="" style="shape=image;verticalLabelPosition=bottom;labelBackgroundColor=default;verticalAlign=top;aspect=fixed;imageAspect=0;image=https://images.softwaresuggest.com/software_logo/1547639328_Snowflake%20logo.png;" vertex="1" parent="1">
          <mxGeometry x="393" y="78" width="115.13" height="106.5" as="geometry" />
        </mxCell>
        <mxCell id="3Tm7QaIwgXdc5dik1Mwg-8" value="&lt;b style=&quot;&quot;&gt;&lt;i&gt;&lt;font style=&quot;font-size: 15px;&quot;&gt;raw&lt;/font&gt;&lt;/i&gt;&lt;/b&gt;" style="text;html=1;align=center;verticalAlign=middle;whiteSpace=wrap;rounded=0;" vertex="1" parent="1">
          <mxGeometry x="420.55999999999995" y="168" width="60" height="30" as="geometry" />
        </mxCell>
        <mxCell id="3Tm7QaIwgXdc5dik1Mwg-31" style="edgeStyle=orthogonalEdgeStyle;rounded=0;orthogonalLoop=1;jettySize=auto;html=1;" edge="1" parent="1" source="3Tm7QaIwgXdc5dik1Mwg-20">
          <mxGeometry relative="1" as="geometry">
            <mxPoint x="757" y="130" as="targetPoint" />
          </mxGeometry>
        </mxCell>
        <mxCell id="3Tm7QaIwgXdc5dik1Mwg-20" value="" style="shape=image;verticalLabelPosition=bottom;labelBackgroundColor=default;verticalAlign=top;aspect=fixed;imageAspect=0;image=https://images.softwaresuggest.com/software_logo/1547639328_Snowflake%20logo.png;" vertex="1" parent="1">
          <mxGeometry x="575" y="77" width="115.13" height="106.5" as="geometry" />
        </mxCell>
        <mxCell id="3Tm7QaIwgXdc5dik1Mwg-21" value="&lt;span style=&quot;font-size: 15px;&quot;&gt;&lt;b&gt;&lt;i&gt;dim/fct&lt;/i&gt;&lt;/b&gt;&lt;/span&gt;" style="text;html=1;align=center;verticalAlign=middle;whiteSpace=wrap;rounded=0;" vertex="1" parent="1">
          <mxGeometry x="602.56" y="167" width="60" height="30" as="geometry" />
        </mxCell>
        <mxCell id="3Tm7QaIwgXdc5dik1Mwg-23" style="edgeStyle=orthogonalEdgeStyle;rounded=0;orthogonalLoop=1;jettySize=auto;html=1;entryX=0.042;entryY=0.509;entryDx=0;entryDy=0;entryPerimeter=0;" edge="1" parent="1" source="3Tm7QaIwgXdc5dik1Mwg-7" target="3Tm7QaIwgXdc5dik1Mwg-20">
          <mxGeometry relative="1" as="geometry" />
        </mxCell>
        <mxCell id="3Tm7QaIwgXdc5dik1Mwg-33" style="edgeStyle=orthogonalEdgeStyle;rounded=0;orthogonalLoop=1;jettySize=auto;html=1;" edge="1" parent="1" source="3Tm7QaIwgXdc5dik1Mwg-28">
          <mxGeometry relative="1" as="geometry">
            <mxPoint x="930" y="128" as="targetPoint" />
          </mxGeometry>
        </mxCell>
        <mxCell id="3Tm7QaIwgXdc5dik1Mwg-28" value="" style="shape=image;verticalLabelPosition=bottom;labelBackgroundColor=default;verticalAlign=top;aspect=fixed;imageAspect=0;image=https://images.softwaresuggest.com/software_logo/1547639328_Snowflake%20logo.png;" vertex="1" parent="1">
          <mxGeometry x="761" y="75" width="115.13" height="106.5" as="geometry" />
        </mxCell>
        <mxCell id="3Tm7QaIwgXdc5dik1Mwg-29" value="&lt;span style=&quot;font-size: 15px;&quot;&gt;&lt;b&gt;&lt;i&gt;mart&lt;/i&gt;&lt;/b&gt;&lt;/span&gt;" style="text;html=1;align=center;verticalAlign=middle;whiteSpace=wrap;rounded=0;" vertex="1" parent="1">
          <mxGeometry x="788.56" y="165" width="60" height="30" as="geometry" />
        </mxCell>
        <mxCell id="3Tm7QaIwgXdc5dik1Mwg-34" value="" style="shape=image;verticalLabelPosition=bottom;labelBackgroundColor=default;verticalAlign=top;aspect=fixed;imageAspect=0;image=https://images.seeklogo.com/logo-png/44/2/streamlit-logo-png_seeklogo-441815.png;" vertex="1" parent="1">
          <mxGeometry x="951" y="87.25" width="86" height="86" as="geometry" />
        </mxCell>
        <mxCell id="3Tm7QaIwgXdc5dik1Mwg-35" value="&lt;span style=&quot;font-size: 15px;&quot;&gt;&lt;b&gt;&lt;i&gt;streamlit&lt;/i&gt;&lt;/b&gt;&lt;/span&gt;&lt;div&gt;&lt;span style=&quot;font-size: 15px;&quot;&gt;&lt;b&gt;&lt;i&gt;dashboard&lt;/i&gt;&lt;/b&gt;&lt;/span&gt;&lt;/div&gt;" style="text;html=1;align=center;verticalAlign=middle;whiteSpace=wrap;rounded=0;" vertex="1" parent="1">
          <mxGeometry x="951" y="165" width="86" height="30" as="geometry" />
        </mxCell>
        <mxCell id="3Tm7QaIwgXdc5dik1Mwg-58" style="edgeStyle=orthogonalEdgeStyle;rounded=0;orthogonalLoop=1;jettySize=auto;html=1;" edge="1" parent="1" source="3Tm7QaIwgXdc5dik1Mwg-36" target="3Tm7QaIwgXdc5dik1Mwg-8">
          <mxGeometry relative="1" as="geometry" />
        </mxCell>
        <mxCell id="3Tm7QaIwgXdc5dik1Mwg-36" value="" style="whiteSpace=wrap;html=1;aspect=fixed;rounded=0;strokeColor=#82b366;align=center;verticalAlign=middle;fontFamily=Helvetica;fontSize=12;fillColor=#d5e8d4;" vertex="1" parent="1">
          <mxGeometry x="56.00999999999999" y="252" width="200" height="200" as="geometry" />
        </mxCell>
        <mxCell id="3Tm7QaIwgXdc5dik1Mwg-37" value="" style="shape=cylinder3;whiteSpace=wrap;html=1;boundedLbl=1;backgroundOutline=1;size=15;" vertex="1" parent="1">
          <mxGeometry x="116.63999999999999" y="299.5" width="78.75" height="105" as="geometry" />
        </mxCell>
        <mxCell id="3Tm7QaIwgXdc5dik1Mwg-38" value="&lt;b&gt;Weather&lt;/b&gt;&lt;div&gt;&lt;b&gt;data&lt;/b&gt;&lt;/div&gt;" style="text;html=1;align=center;verticalAlign=middle;whiteSpace=wrap;rounded=0;" vertex="1" parent="1">
          <mxGeometry x="61.00999999999999" y="260" width="60" height="30" as="geometry" />
        </mxCell>
        <mxCell id="3Tm7QaIwgXdc5dik1Mwg-39" value="&lt;i&gt;api&lt;/i&gt;" style="text;html=1;align=center;verticalAlign=middle;whiteSpace=wrap;rounded=0;" vertex="1" parent="1">
          <mxGeometry x="126.01999999999998" y="404.5" width="60" height="30" as="geometry" />
        </mxCell>
        <mxCell id="3Tm7QaIwgXdc5dik1Mwg-61" style="edgeStyle=orthogonalEdgeStyle;rounded=0;orthogonalLoop=1;jettySize=auto;html=1;entryX=0.5;entryY=1;entryDx=0;entryDy=0;" edge="1" parent="1" source="3Tm7QaIwgXdc5dik1Mwg-40" target="3Tm7QaIwgXdc5dik1Mwg-8">
          <mxGeometry relative="1" as="geometry" />
        </mxCell>
        <mxCell id="3Tm7QaIwgXdc5dik1Mwg-40" value="" style="whiteSpace=wrap;html=1;aspect=fixed;rounded=0;strokeColor=#d79b00;align=center;verticalAlign=middle;fontFamily=Helvetica;fontSize=12;fillColor=#ffe6cc;" vertex="1" parent="1">
          <mxGeometry x="56.019999999999996" y="470" width="200" height="200" as="geometry" />
        </mxCell>
        <mxCell id="3Tm7QaIwgXdc5dik1Mwg-41" value="" style="shape=cylinder3;whiteSpace=wrap;html=1;boundedLbl=1;backgroundOutline=1;size=15;" vertex="1" parent="1">
          <mxGeometry x="116.65" y="517.5" width="78.75" height="105" as="geometry" />
        </mxCell>
        <mxCell id="3Tm7QaIwgXdc5dik1Mwg-42" value="&lt;b&gt;Lockup&lt;/b&gt;&lt;div&gt;&lt;b&gt;tables&lt;/b&gt;&lt;/div&gt;" style="text;html=1;align=center;verticalAlign=middle;whiteSpace=wrap;rounded=0;" vertex="1" parent="1">
          <mxGeometry x="61.019999999999996" y="478" width="60" height="30" as="geometry" />
        </mxCell>
        <mxCell id="3Tm7QaIwgXdc5dik1Mwg-43" value="&lt;i&gt;csv&lt;/i&gt;" style="text;html=1;align=center;verticalAlign=middle;whiteSpace=wrap;rounded=0;" vertex="1" parent="1">
          <mxGeometry x="126.03" y="622.5" width="60" height="30" as="geometry" />
        </mxCell>
        <mxCell id="3Tm7QaIwgXdc5dik1Mwg-59" value="" style="shape=image;verticalLabelPosition=bottom;labelBackgroundColor=default;verticalAlign=top;aspect=fixed;imageAspect=0;image=https://upload.wikimedia.org/wikipedia/commons/thumb/c/c3/Python-logo-notext.svg/1200px-Python-logo-notext.svg.png;" vertex="1" parent="1">
          <mxGeometry x="302" y="267" width="42" height="42" as="geometry" />
        </mxCell>
        <mxCell id="3Tm7QaIwgXdc5dik1Mwg-60" value="&lt;i&gt;&lt;b&gt;Python/&lt;/b&gt;&lt;/i&gt;&lt;div&gt;&lt;i&gt;&lt;b&gt;snowpark&lt;/b&gt;&lt;/i&gt;&lt;/div&gt;" style="text;html=1;align=center;verticalAlign=middle;whiteSpace=wrap;rounded=0;" vertex="1" parent="1">
          <mxGeometry x="293" y="316" width="60" height="30" as="geometry" />
        </mxCell>
        <mxCell id="3Tm7QaIwgXdc5dik1Mwg-66" value="" style="shape=image;verticalLabelPosition=bottom;labelBackgroundColor=default;verticalAlign=top;aspect=fixed;imageAspect=0;image=data:image/png,iVBORw0KGgoAAAANSUhEUgAAAPIAAADRCAMAAADBjh8OAAAAkFBMVEX/////aEn//v7/Zkb+WjX+XDj+Y0L/ZUX+Xz3+YUD+Wzb+WTP+VzH++vn+Xjv+//7+3tj/8/D+VCz+6+f+tqr/8O3+u7D+no3+y8L+a03+dVr+2NH+j3v+p5j+xLr+fGT+h3L+gmv+sKL+0sv+q539fGT9mYf+hG7+5OD+cFT+29b+kn7+ua39d13+wbb+TB9gj4iwAAALeklEQVR4nO2daXeyPBOAgRB2iLjvW6vF9tb3//+7F7RWxYAkMwHPc7g+9UOPyZBJZkky0bSWlpaWlpb/BKzpDtyopytGPBv2x0nYrORMC5NlfzgbGMobmo2mXkAjMyD7WZNCz35I4DlRYE5HaT/UdSTsE9Ml+hni+seZspZKYdr30bf0az9MMgxT5VPSVN+l+j0k2HVUtVVGsg7sh45Qe6imocOjwBm2vx4oaawQpg3mfyN8+/h02kNuKB3Jfpc8SZximYsQubFSwoXv8vph+ydUhUt/au3xGspwnBNeS68Yuk5RP/w9YjuGFu4KW0oxDx/1LN4fh8IPnxKtDaxxTn/myFWmP4g/76kWmmnJzuTOrZu+feHp9lfZGJ+xgk/FUzr+6dqveuGssVobPS/VnOZcNYbiDNP6UbmiXfA+cdobdys0lrV3UOaajCdVvnpKMMZoLn6ygkUQcx7jT+l0Em/88kl81wUrRujAvIpG/XKZ0rj+WDx6PYlvOD/wFpOKav1LNBljDjQrs8Rc/A7wkzNtLfCJzwQrRMd7NimzxDysNbTNXsV14w7b3yNpdzx/YYl5mAlQyz7F1OqCaw7h2s3Cz27llfMOZwFs+CD+mTO81AcFspxEUk3rBNZuT2zxums32PQg2p2sArmPnS4mHYjEbCk+la9YVN4VCke+6Kp5w+lDJhX7kW85NVjeUq7ZZSCzglyx5gCJ04ACInK6eq4ktLszNUGNkinIWhxlJ9Qvdncfi7U4mPPTLwK4oKBuBxtlPUuabEUarBYxlUNAIs/BIqdTWq+cNPmuGjGVSnyESMz+SdrGxz5055W0O94HCF9Yd2FJMMGgogirWyFpcgrgOp3hA8N2Se/rCTp5od3fG9g6/QfRYRKzMVJHUnfsq8xg7f+HodMZdAh176Fm6oblfZZ0Zu/jtEJcQauYx9A+ApyuZERWSWpqiyNzJGQT+RyxNE4/a3fC1+50/PsoH9dCSC7PkDTut0fBqLBPW9EMCAdT0q1/RDgVVI5jF/aqUsK8FBvkhlxh0jFzAcQ8JgUGaw21zP4MJ9c4goRyPEh3FHOndKjD7AM813eBVU/eVybboeWNxzdsCfN7DCm3ukVw9vOY02+e0CCNAmf67nDR/JEbxP/haHcI+UlYoHyPwcaohuqvh2YftSnvhLk3tMI1VFdotlmZ6+ZUtilywJM3pYNsqP662Z3ngg02ll04THDq/JEfnFj2GdfbskehJeNVLAP1xwAjPcInIo/DI5mJSQ0UssxSm1PVIP7X/UG1WMrVdkbIAqdzDN8fuWF3F3eblXOZpjAiqDxLJYbqSqTftuJldoV8JeftNmoM1ZVgdQ2lB+JzCCeCeqKDmB/hYZnXUFo8+YQVQT1iaHt1K9gF17ycPR2JWkQX4VAMl4GC6CKHl2m3+GQOlB2R7qszzldItm8nOoUwUnwFMKIgosrjukNDbJSJruz8qMEwM7zF0OlE6P9xTjEW8aXSIflDTJesjUqJtUSpPyIHTZSKjJ/6A6PAuX4ktGpYwYRwlF9nGao3zkLQofqbWlg7zjiQqfKLLIY2q8VQVaVbyyVEZTkhCVLnuoYLiKyHsEGIhTPA2p4o51O9q10R2q/plmlYh6tdBehJmMoY2vJNVNv/qO8qMfycIwbAI7kiGCx5C0PVrfXu9Du42lRdYoBH3LyrTQ613hVXndWugtrEAA9F26+VsXZ1S6wlDRsqmtRf66LZFQzzWEhVWNio26k+McCj32CygP5rQmLY4R0d5KcrzFyXYUB22UlwmAIuUjQxk88MpN1O65BoWm8lnWsIsMvjVEY2kW/p55Px4VRSZnvVlMTaSW4Bsw6/dwGMnZzMtMYSPY+wnpSd+h3jDMlxNhvTa7m7Jn9jfJZZZj4D73HC2ItP5rsxPhdckhhnC7PmkyASN7qtSe5Oj8Q4w+5kAxE+MWPpuUyGzDh7DdUMPBMLnmbNxvhpHgqPs6l4d7UUwRMO9mTAvVEhOM4e8L4bDLEV2+Xm51Ldngj9TjNR1BWhQx3F99VPQgbeatBGCe680nHBSss6QikWu9HStkIa6RQWGhkKxWR4t0ZkEOmprkcFjmIsNpdpkyIzsYiZ6FyZw4OYE+fVXOH1gVjQFbEJR+ZY1BcBl7eCILw3xZE5PIh6X7T2pP0dY+Fkdk5mIx1j4dDEKbvgr5qFeBiUkzmcSERS9W2yPrOTiJcfZI4FV64zDeU3Lx2WymnY1p/M8UQqe+Z3GtNs8al8kfk6zlJjrJf5NMr5kcxw2u5ZZskxTjV70pTEofTmo03GWbVr6cPd/ndDIkNOsJqeWblQ7jOWqhszLzAaPMBK0e90VqLJ01/uvoHHIwQDR2yCBg4RNLq9nC6Aau+Q8GBybgge5rL2YRapFK5G5rq9zubP3iu/OZOn0bXrQs2edrNr1wVF17S5GGyAVcQQhI9aLeYFja9dZ+qLmw02e4tBrnUFmza/dl3o9mpS7f6bXK2ozQdj8RucuL9iFm1z4bJ/i7XrAtHVi/wuV0muKKy8cKPp4/Y5HO7BBETe51rYFfUXPaGVMvHpdhTf9Fy8zRXPK7DS9q/pvYnfdY/iQ6xrsdRzLZOAqDwhxAQTA5NdLTGmQlfbEE0MOOzk1OGq0UTZCia6PREkWjxCeYuiHPR6lH/EoqV1aVaPr1P9yUJpAjUHWSWqurnZRRemLW3V2k2mSiSWcK7t3flTaWxBFVeQompeT5W4L+NcT2j1Nmov/xIH4xXPPDJVnL3bcaXKz67KocRQyWSu75fScMt/EhwJD/9culzx9+D+tPhgrnDtRjdUTKICakY0fHASPhRqd4BbHtuQrYWUu9LEtL6rSrtxi6Ab8k9pefkCL4Mf8HN3BcBfVXpAuoRw/rySkbpjRzURKInwrpkY2od8Jznv4LAhVaLdqaHCiy4AgS/Rw5y+GdkDpZ6KYMPHi6j+QdZZvpOQrBQYrNRQIYksHEE9wi2vx7Sxjh9sIBkqpi1gfSO8W38p4ULqSenSpnAiKvh7Uu6x4Om/3lri4fBSKM4uu9QDA48dGRU9CIcdbKDssqPsn3vbwicetw6qdkfwo9oGzv55ULxb1ptLPyHOg8ZAQ2VoY5yNRrOk+MnsgKjdcH+EYZ1A9ubFs4z9Q3TH6ADmarMT1kYj6ZZd9Yn3JtaUBhfTwRpkc9MpaSUNNpI11pSOQIs2Q3p/2XH5D/7dN5W6Yzi7mnQJ0Wy2xXAKSbf40dJ7wk8U7bbmVd8x54Lxljqdzir1wchyvx5cu4HVKmVu+D3iuEIF2MYIBgv2tBT0wWnb2/OfKi2EbSPgZAI6nV8gxSb+ruhB2iKMzGD5oFZtUIVOJlH36IZT9qh2GckKMqWBVZMAr8db5kJewSBTOjqB3K+BrF0m/lpUp29k2bGh9JQOgDflJNcvOoWlZDKhF77UrAJnRqQyfa739P6sDKkPKrGOUWjbEjfAbHOPkkNPR3q2Es8UueDGRZ+mI/4xEbPEpZxcwSmNsNEsWC2FTpYgD/cJYxEJfXSMXRqRjWXL34YM9eRs5nj/dKtPaQ/lfHbl5JdtztXUW+tszIpCWzh1WKvGzMGqLAsAY3aotp/jIRUlPVU5GBNNxriTOMeySsbbRztJ8PlyCXO7W7U30wwt7JuvFu8A8U7zotzVxrLEZWQh1sgpW7wJZytbGlY6zmmI2FGq07du9ObF/hjBfshiWzjO9IBsiUvIDsEWxJWujr54jgOuk+9G/VpLAmQ7d5zUehq4KZhaA87OqEur5S4xYdrpKfsbkZdJYznGOeNoBYCYGEK49e6EJtT5FEywVcTIlGpHo+v64dB5MwJnhH3iZcc5bIfS3TBU2o+kv/EC6niBvmiyfjHTwo/91LI2i2XmbyldTtLPGXZO26U631KgJ09/tbS0tLS0tLS0tLS0tLS0tLS84P83bsvFHhtnlwAAAABJRU5ErkJggg==;" vertex="1" parent="1">
          <mxGeometry x="515.99" y="63" width="52" height="44.91" as="geometry" />
        </mxCell>
        <mxCell id="3Tm7QaIwgXdc5dik1Mwg-68" value="&lt;i&gt;&lt;b&gt;dbt&lt;/b&gt;&lt;/i&gt;" style="text;html=1;align=center;verticalAlign=middle;whiteSpace=wrap;rounded=0;" vertex="1" parent="1">
          <mxGeometry x="512" y="105" width="60" height="30" as="geometry" />
        </mxCell>
        <mxCell id="3Tm7QaIwgXdc5dik1Mwg-70" value="" style="shape=image;verticalLabelPosition=bottom;labelBackgroundColor=default;verticalAlign=top;aspect=fixed;imageAspect=0;image=data:image/png,iVBORw0KGgoAAAANSUhEUgAAAPIAAADRCAMAAADBjh8OAAAAkFBMVEX/////aEn//v7/Zkb+WjX+XDj+Y0L/ZUX+Xz3+YUD+Wzb+WTP+VzH++vn+Xjv+//7+3tj/8/D+VCz+6+f+tqr/8O3+u7D+no3+y8L+a03+dVr+2NH+j3v+p5j+xLr+fGT+h3L+gmv+sKL+0sv+q539fGT9mYf+hG7+5OD+cFT+29b+kn7+ua39d13+wbb+TB9gj4iwAAALeklEQVR4nO2daXeyPBOAgRB2iLjvW6vF9tb3//+7F7RWxYAkMwHPc7g+9UOPyZBJZkky0bSWlpaWlpb/BKzpDtyopytGPBv2x0nYrORMC5NlfzgbGMobmo2mXkAjMyD7WZNCz35I4DlRYE5HaT/UdSTsE9Ml+hni+seZspZKYdr30bf0az9MMgxT5VPSVN+l+j0k2HVUtVVGsg7sh45Qe6imocOjwBm2vx4oaawQpg3mfyN8+/h02kNuKB3Jfpc8SZximYsQubFSwoXv8vph+ydUhUt/au3xGspwnBNeS68Yuk5RP/w9YjuGFu4KW0oxDx/1LN4fh8IPnxKtDaxxTn/myFWmP4g/76kWmmnJzuTOrZu+feHp9lfZGJ+xgk/FUzr+6dqveuGssVobPS/VnOZcNYbiDNP6UbmiXfA+cdobdys0lrV3UOaajCdVvnpKMMZoLn6ygkUQcx7jT+l0Em/88kl81wUrRujAvIpG/XKZ0rj+WDx6PYlvOD/wFpOKav1LNBljDjQrs8Rc/A7wkzNtLfCJzwQrRMd7NimzxDysNbTNXsV14w7b3yNpdzx/YYl5mAlQyz7F1OqCaw7h2s3Cz27llfMOZwFs+CD+mTO81AcFspxEUk3rBNZuT2zxums32PQg2p2sArmPnS4mHYjEbCk+la9YVN4VCke+6Kp5w+lDJhX7kW85NVjeUq7ZZSCzglyx5gCJ04ACInK6eq4ktLszNUGNkinIWhxlJ9Qvdncfi7U4mPPTLwK4oKBuBxtlPUuabEUarBYxlUNAIs/BIqdTWq+cNPmuGjGVSnyESMz+SdrGxz5055W0O94HCF9Yd2FJMMGgogirWyFpcgrgOp3hA8N2Se/rCTp5od3fG9g6/QfRYRKzMVJHUnfsq8xg7f+HodMZdAh176Fm6oblfZZ0Zu/jtEJcQauYx9A+ApyuZERWSWpqiyNzJGQT+RyxNE4/a3fC1+50/PsoH9dCSC7PkDTut0fBqLBPW9EMCAdT0q1/RDgVVI5jF/aqUsK8FBvkhlxh0jFzAcQ8JgUGaw21zP4MJ9c4goRyPEh3FHOndKjD7AM813eBVU/eVybboeWNxzdsCfN7DCm3ukVw9vOY02+e0CCNAmf67nDR/JEbxP/haHcI+UlYoHyPwcaohuqvh2YftSnvhLk3tMI1VFdotlmZ6+ZUtilywJM3pYNsqP662Z3ngg02ll04THDq/JEfnFj2GdfbskehJeNVLAP1xwAjPcInIo/DI5mJSQ0UssxSm1PVIP7X/UG1WMrVdkbIAqdzDN8fuWF3F3eblXOZpjAiqDxLJYbqSqTftuJldoV8JeftNmoM1ZVgdQ2lB+JzCCeCeqKDmB/hYZnXUFo8+YQVQT1iaHt1K9gF17ycPR2JWkQX4VAMl4GC6CKHl2m3+GQOlB2R7qszzldItm8nOoUwUnwFMKIgosrjukNDbJSJruz8qMEwM7zF0OlE6P9xTjEW8aXSIflDTJesjUqJtUSpPyIHTZSKjJ/6A6PAuX4ktGpYwYRwlF9nGao3zkLQofqbWlg7zjiQqfKLLIY2q8VQVaVbyyVEZTkhCVLnuoYLiKyHsEGIhTPA2p4o51O9q10R2q/plmlYh6tdBehJmMoY2vJNVNv/qO8qMfycIwbAI7kiGCx5C0PVrfXu9Du42lRdYoBH3LyrTQ613hVXndWugtrEAA9F26+VsXZ1S6wlDRsqmtRf66LZFQzzWEhVWNio26k+McCj32CygP5rQmLY4R0d5KcrzFyXYUB22UlwmAIuUjQxk88MpN1O65BoWm8lnWsIsMvjVEY2kW/p55Px4VRSZnvVlMTaSW4Bsw6/dwGMnZzMtMYSPY+wnpSd+h3jDMlxNhvTa7m7Jn9jfJZZZj4D73HC2ItP5rsxPhdckhhnC7PmkyASN7qtSe5Oj8Q4w+5kAxE+MWPpuUyGzDh7DdUMPBMLnmbNxvhpHgqPs6l4d7UUwRMO9mTAvVEhOM4e8L4bDLEV2+Xm51Ldngj9TjNR1BWhQx3F99VPQgbeatBGCe680nHBSss6QikWu9HStkIa6RQWGhkKxWR4t0ZkEOmprkcFjmIsNpdpkyIzsYiZ6FyZw4OYE+fVXOH1gVjQFbEJR+ZY1BcBl7eCILw3xZE5PIh6X7T2pP0dY+Fkdk5mIx1j4dDEKbvgr5qFeBiUkzmcSERS9W2yPrOTiJcfZI4FV64zDeU3Lx2WymnY1p/M8UQqe+Z3GtNs8al8kfk6zlJjrJf5NMr5kcxw2u5ZZskxTjV70pTEofTmo03GWbVr6cPd/ndDIkNOsJqeWblQ7jOWqhszLzAaPMBK0e90VqLJ01/uvoHHIwQDR2yCBg4RNLq9nC6Aau+Q8GBybgge5rL2YRapFK5G5rq9zubP3iu/OZOn0bXrQs2edrNr1wVF17S5GGyAVcQQhI9aLeYFja9dZ+qLmw02e4tBrnUFmza/dl3o9mpS7f6bXK2ozQdj8RucuL9iFm1z4bJ/i7XrAtHVi/wuV0muKKy8cKPp4/Y5HO7BBETe51rYFfUXPaGVMvHpdhTf9Fy8zRXPK7DS9q/pvYnfdY/iQ6xrsdRzLZOAqDwhxAQTA5NdLTGmQlfbEE0MOOzk1OGq0UTZCia6PREkWjxCeYuiHPR6lH/EoqV1aVaPr1P9yUJpAjUHWSWqurnZRRemLW3V2k2mSiSWcK7t3flTaWxBFVeQompeT5W4L+NcT2j1Nmov/xIH4xXPPDJVnL3bcaXKz67KocRQyWSu75fScMt/EhwJD/9culzx9+D+tPhgrnDtRjdUTKICakY0fHASPhRqd4BbHtuQrYWUu9LEtL6rSrtxi6Ab8k9pefkCL4Mf8HN3BcBfVXpAuoRw/rySkbpjRzURKInwrpkY2od8Jznv4LAhVaLdqaHCiy4AgS/Rw5y+GdkDpZ6KYMPHi6j+QdZZvpOQrBQYrNRQIYksHEE9wi2vx7Sxjh9sIBkqpi1gfSO8W38p4ULqSenSpnAiKvh7Uu6x4Om/3lri4fBSKM4uu9QDA48dGRU9CIcdbKDssqPsn3vbwicetw6qdkfwo9oGzv55ULxb1ptLPyHOg8ZAQ2VoY5yNRrOk+MnsgKjdcH+EYZ1A9ubFs4z9Q3TH6ADmarMT1kYj6ZZd9Yn3JtaUBhfTwRpkc9MpaSUNNpI11pSOQIs2Q3p/2XH5D/7dN5W6Yzi7mnQJ0Wy2xXAKSbf40dJ7wk8U7bbmVd8x54Lxljqdzir1wchyvx5cu4HVKmVu+D3iuEIF2MYIBgv2tBT0wWnb2/OfKi2EbSPgZAI6nV8gxSb+ruhB2iKMzGD5oFZtUIVOJlH36IZT9qh2GckKMqWBVZMAr8db5kJewSBTOjqB3K+BrF0m/lpUp29k2bGh9JQOgDflJNcvOoWlZDKhF77UrAJnRqQyfa739P6sDKkPKrGOUWjbEjfAbHOPkkNPR3q2Es8UueDGRZ+mI/4xEbPEpZxcwSmNsNEsWC2FTpYgD/cJYxEJfXSMXRqRjWXL34YM9eRs5nj/dKtPaQ/lfHbl5JdtztXUW+tszIpCWzh1WKvGzMGqLAsAY3aotp/jIRUlPVU5GBNNxriTOMeySsbbRztJ8PlyCXO7W7U30wwt7JuvFu8A8U7zotzVxrLEZWQh1sgpW7wJZytbGlY6zmmI2FGq07du9ObF/hjBfshiWzjO9IBsiUvIDsEWxJWujr54jgOuk+9G/VpLAmQ7d5zUehq4KZhaA87OqEur5S4xYdrpKfsbkZdJYznGOeNoBYCYGEK49e6EJtT5FEywVcTIlGpHo+v64dB5MwJnhH3iZcc5bIfS3TBU2o+kv/EC6niBvmiyfjHTwo/91LI2i2XmbyldTtLPGXZO26U631KgJ09/tbS0tLS0tLS0tLS0tLS0tLS84P83bsvFHhtnlwAAAABJRU5ErkJggg==;" vertex="1" parent="1">
          <mxGeometry x="695.99" y="63" width="52" height="44.91" as="geometry" />
        </mxCell>
        <mxCell id="3Tm7QaIwgXdc5dik1Mwg-71" value="&lt;i&gt;&lt;b&gt;dbt&lt;/b&gt;&lt;/i&gt;" style="text;html=1;align=center;verticalAlign=middle;whiteSpace=wrap;rounded=0;" vertex="1" parent="1">
          <mxGeometry x="692" y="105" width="60" height="30" as="geometry" />
        </mxCell>
        <mxCell id="3Tm7QaIwgXdc5dik1Mwg-73" value="" style="shape=image;verticalLabelPosition=bottom;labelBackgroundColor=default;verticalAlign=top;aspect=fixed;imageAspect=0;image=data:image/png,iVBORw0KGgoAAAANSUhEUgAAAPIAAADRCAMAAADBjh8OAAAAkFBMVEX/////aEn//v7/Zkb+WjX+XDj+Y0L/ZUX+Xz3+YUD+Wzb+WTP+VzH++vn+Xjv+//7+3tj/8/D+VCz+6+f+tqr/8O3+u7D+no3+y8L+a03+dVr+2NH+j3v+p5j+xLr+fGT+h3L+gmv+sKL+0sv+q539fGT9mYf+hG7+5OD+cFT+29b+kn7+ua39d13+wbb+TB9gj4iwAAALeklEQVR4nO2daXeyPBOAgRB2iLjvW6vF9tb3//+7F7RWxYAkMwHPc7g+9UOPyZBJZkky0bSWlpaWlpb/BKzpDtyopytGPBv2x0nYrORMC5NlfzgbGMobmo2mXkAjMyD7WZNCz35I4DlRYE5HaT/UdSTsE9Ml+hni+seZspZKYdr30bf0az9MMgxT5VPSVN+l+j0k2HVUtVVGsg7sh45Qe6imocOjwBm2vx4oaawQpg3mfyN8+/h02kNuKB3Jfpc8SZximYsQubFSwoXv8vph+ydUhUt/au3xGspwnBNeS68Yuk5RP/w9YjuGFu4KW0oxDx/1LN4fh8IPnxKtDaxxTn/myFWmP4g/76kWmmnJzuTOrZu+feHp9lfZGJ+xgk/FUzr+6dqveuGssVobPS/VnOZcNYbiDNP6UbmiXfA+cdobdys0lrV3UOaajCdVvnpKMMZoLn6ygkUQcx7jT+l0Em/88kl81wUrRujAvIpG/XKZ0rj+WDx6PYlvOD/wFpOKav1LNBljDjQrs8Rc/A7wkzNtLfCJzwQrRMd7NimzxDysNbTNXsV14w7b3yNpdzx/YYl5mAlQyz7F1OqCaw7h2s3Cz27llfMOZwFs+CD+mTO81AcFspxEUk3rBNZuT2zxums32PQg2p2sArmPnS4mHYjEbCk+la9YVN4VCke+6Kp5w+lDJhX7kW85NVjeUq7ZZSCzglyx5gCJ04ACInK6eq4ktLszNUGNkinIWhxlJ9Qvdncfi7U4mPPTLwK4oKBuBxtlPUuabEUarBYxlUNAIs/BIqdTWq+cNPmuGjGVSnyESMz+SdrGxz5055W0O94HCF9Yd2FJMMGgogirWyFpcgrgOp3hA8N2Se/rCTp5od3fG9g6/QfRYRKzMVJHUnfsq8xg7f+HodMZdAh176Fm6oblfZZ0Zu/jtEJcQauYx9A+ApyuZERWSWpqiyNzJGQT+RyxNE4/a3fC1+50/PsoH9dCSC7PkDTut0fBqLBPW9EMCAdT0q1/RDgVVI5jF/aqUsK8FBvkhlxh0jFzAcQ8JgUGaw21zP4MJ9c4goRyPEh3FHOndKjD7AM813eBVU/eVybboeWNxzdsCfN7DCm3ukVw9vOY02+e0CCNAmf67nDR/JEbxP/haHcI+UlYoHyPwcaohuqvh2YftSnvhLk3tMI1VFdotlmZ6+ZUtilywJM3pYNsqP662Z3ngg02ll04THDq/JEfnFj2GdfbskehJeNVLAP1xwAjPcInIo/DI5mJSQ0UssxSm1PVIP7X/UG1WMrVdkbIAqdzDN8fuWF3F3eblXOZpjAiqDxLJYbqSqTftuJldoV8JeftNmoM1ZVgdQ2lB+JzCCeCeqKDmB/hYZnXUFo8+YQVQT1iaHt1K9gF17ycPR2JWkQX4VAMl4GC6CKHl2m3+GQOlB2R7qszzldItm8nOoUwUnwFMKIgosrjukNDbJSJruz8qMEwM7zF0OlE6P9xTjEW8aXSIflDTJesjUqJtUSpPyIHTZSKjJ/6A6PAuX4ktGpYwYRwlF9nGao3zkLQofqbWlg7zjiQqfKLLIY2q8VQVaVbyyVEZTkhCVLnuoYLiKyHsEGIhTPA2p4o51O9q10R2q/plmlYh6tdBehJmMoY2vJNVNv/qO8qMfycIwbAI7kiGCx5C0PVrfXu9Du42lRdYoBH3LyrTQ613hVXndWugtrEAA9F26+VsXZ1S6wlDRsqmtRf66LZFQzzWEhVWNio26k+McCj32CygP5rQmLY4R0d5KcrzFyXYUB22UlwmAIuUjQxk88MpN1O65BoWm8lnWsIsMvjVEY2kW/p55Px4VRSZnvVlMTaSW4Bsw6/dwGMnZzMtMYSPY+wnpSd+h3jDMlxNhvTa7m7Jn9jfJZZZj4D73HC2ItP5rsxPhdckhhnC7PmkyASN7qtSe5Oj8Q4w+5kAxE+MWPpuUyGzDh7DdUMPBMLnmbNxvhpHgqPs6l4d7UUwRMO9mTAvVEhOM4e8L4bDLEV2+Xm51Ldngj9TjNR1BWhQx3F99VPQgbeatBGCe680nHBSss6QikWu9HStkIa6RQWGhkKxWR4t0ZkEOmprkcFjmIsNpdpkyIzsYiZ6FyZw4OYE+fVXOH1gVjQFbEJR+ZY1BcBl7eCILw3xZE5PIh6X7T2pP0dY+Fkdk5mIx1j4dDEKbvgr5qFeBiUkzmcSERS9W2yPrOTiJcfZI4FV64zDeU3Lx2WymnY1p/M8UQqe+Z3GtNs8al8kfk6zlJjrJf5NMr5kcxw2u5ZZskxTjV70pTEofTmo03GWbVr6cPd/ndDIkNOsJqeWblQ7jOWqhszLzAaPMBK0e90VqLJ01/uvoHHIwQDR2yCBg4RNLq9nC6Aau+Q8GBybgge5rL2YRapFK5G5rq9zubP3iu/OZOn0bXrQs2edrNr1wVF17S5GGyAVcQQhI9aLeYFja9dZ+qLmw02e4tBrnUFmza/dl3o9mpS7f6bXK2ozQdj8RucuL9iFm1z4bJ/i7XrAtHVi/wuV0muKKy8cKPp4/Y5HO7BBETe51rYFfUXPaGVMvHpdhTf9Fy8zRXPK7DS9q/pvYnfdY/iQ6xrsdRzLZOAqDwhxAQTA5NdLTGmQlfbEE0MOOzk1OGq0UTZCia6PREkWjxCeYuiHPR6lH/EoqV1aVaPr1P9yUJpAjUHWSWqurnZRRemLW3V2k2mSiSWcK7t3flTaWxBFVeQompeT5W4L+NcT2j1Nmov/xIH4xXPPDJVnL3bcaXKz67KocRQyWSu75fScMt/EhwJD/9culzx9+D+tPhgrnDtRjdUTKICakY0fHASPhRqd4BbHtuQrYWUu9LEtL6rSrtxi6Ab8k9pefkCL4Mf8HN3BcBfVXpAuoRw/rySkbpjRzURKInwrpkY2od8Jznv4LAhVaLdqaHCiy4AgS/Rw5y+GdkDpZ6KYMPHi6j+QdZZvpOQrBQYrNRQIYksHEE9wi2vx7Sxjh9sIBkqpi1gfSO8W38p4ULqSenSpnAiKvh7Uu6x4Om/3lri4fBSKM4uu9QDA48dGRU9CIcdbKDssqPsn3vbwicetw6qdkfwo9oGzv55ULxb1ptLPyHOg8ZAQ2VoY5yNRrOk+MnsgKjdcH+EYZ1A9ubFs4z9Q3TH6ADmarMT1kYj6ZZd9Yn3JtaUBhfTwRpkc9MpaSUNNpI11pSOQIs2Q3p/2XH5D/7dN5W6Yzi7mnQJ0Wy2xXAKSbf40dJ7wk8U7bbmVd8x54Lxljqdzir1wchyvx5cu4HVKmVu+D3iuEIF2MYIBgv2tBT0wWnb2/OfKi2EbSPgZAI6nV8gxSb+ruhB2iKMzGD5oFZtUIVOJlH36IZT9qh2GckKMqWBVZMAr8db5kJewSBTOjqB3K+BrF0m/lpUp29k2bGh9JQOgDflJNcvOoWlZDKhF77UrAJnRqQyfa739P6sDKkPKrGOUWjbEjfAbHOPkkNPR3q2Es8UueDGRZ+mI/4xEbPEpZxcwSmNsNEsWC2FTpYgD/cJYxEJfXSMXRqRjWXL34YM9eRs5nj/dKtPaQ/lfHbl5JdtztXUW+tszIpCWzh1WKvGzMGqLAsAY3aotp/jIRUlPVU5GBNNxriTOMeySsbbRztJ8PlyCXO7W7U30wwt7JuvFu8A8U7zotzVxrLEZWQh1sgpW7wJZytbGlY6zmmI2FGq07du9ObF/hjBfshiWzjO9IBsiUvIDsEWxJWujr54jgOuk+9G/VpLAmQ7d5zUehq4KZhaA87OqEur5S4xYdrpKfsbkZdJYznGOeNoBYCYGEK49e6EJtT5FEywVcTIlGpHo+v64dB5MwJnhH3iZcc5bIfS3TBU2o+kv/EC6niBvmiyfjHTwo/91LI2i2XmbyldTtLPGXZO26U631KgJ09/tbS0tLS0tLS0tLS0tLS0tLS84P83bsvFHhtnlwAAAABJRU5ErkJggg==;" vertex="1" parent="1">
          <mxGeometry x="298.98" y="499" width="52" height="44.91" as="geometry" />
        </mxCell>
        <mxCell id="3Tm7QaIwgXdc5dik1Mwg-74" value="&lt;i&gt;&lt;b&gt;dbt seed&lt;/b&gt;&lt;/i&gt;" style="text;html=1;align=center;verticalAlign=middle;whiteSpace=wrap;rounded=0;" vertex="1" parent="1">
          <mxGeometry x="294.99" y="541" width="61.01" height="30" as="geometry" />
        </mxCell>
        <mxCell id="3Tm7QaIwgXdc5dik1Mwg-78" value="" style="shape=image;verticalLabelPosition=bottom;labelBackgroundColor=default;verticalAlign=top;aspect=fixed;imageAspect=0;image=https://airflow.apache.org/docs/apache-airflow/1.10.6/_images/pin_large.png;" vertex="1" parent="1">
          <mxGeometry x="837" y="731" width="81.56" height="81.56" as="geometry" />
        </mxCell>
        <mxCell id="3Tm7QaIwgXdc5dik1Mwg-79" value="" style="shape=image;verticalLabelPosition=bottom;labelBackgroundColor=default;verticalAlign=top;aspect=fixed;imageAspect=0;image=data:image/png,iVBORw0KGgoAAAANSUhEUgAAAQgAAAC/CAMAAAA1kLK0AAAAb1BMVEUAkeL///8AjeF3u+wAiuF/ve3B3/YAj+IAjOGo0/NYrukAiOB8u+1Couaiy/Ahl+PO4/dksuro8/sAhuDV6vmy1/Ts9vzz+v7d7voqnOW+3vbH4veWyfAAlONNqOiby/GLxO9wtuvS6Pk3n+VYq+lJCQsnAAAIFUlEQVR4nO2da4OqIBCGwWWDIk/ZVlp2s/b//8aTSrtbOcpFQ8j346qEzwoMzDAgbEnrOaC1nfogOz+L518EEF9aqZAtEBOKAAWRlQr1DwSdWKnQAEJoACE0gBAaQAgNIIQGEEIDCKEBhNAAQmgAITSAEBpACA0ghAYQQgMIoQGE0ABCaAAhNIAQGkAI2QJx5BQQP1qpkC0Q+BgBssPBHoi+aQAhNIAQGkAI6YJIxoDO4oYUumFRXl9C15M2XktdmiDOnAH6WhU3nKAbCCtIbMECeNray6lIE8RnANpDYXHDHrqO2L/8eo1B5ZQ3fNoEYqYPwinLcgAhNIAQGkAI9RRE8qn9qF8gLgStNB/1CsSJIURCPYvMJxBLXjxPtCbyPoHYiDKJTgkegTiSWxHBbKH8tD8g4j9VosG5+YF7+QMi7yl/RbaKj3sDIib3xaiS8AbE03yYqE3nvQHBngpiSgaFLyD+PYOg+1ihAF9AVP2eqIqcPAFxJlVFsZN8CZ6AyKqLI/LmhCcgKj+Ia1kz6RK6Wrx9LYgUAKHQODRBpF8BIL4rbogIeEOxeW0MFvA1Vq8O/IEy2VmHroNn9Ano9hpH6IZ5eX0FXddZWYG/P+mtcl64/NYcBIG4pFnlBYjRszX12+VkcmV4AeIEdhFXETn70gsQ3+AQlHeXcit3EIjVtL4v20LXfzpL6IZU7gcS4PJ097x5HHa05m1jYwKiaXTbNg2fGdcePgsSMWLAdfL8YpAVodJdAiBq7J3v/HqjZWngDS8MqurJQyHyaBos6kHItQ0ARGQKwtSyVAGxrAdBD+8Coube8oF3ATFvAiGTkeIdQLByJIvXi6RUlWXxDiBotN1l4R7RgBU5SxhFm2g3uh9MfADR1Ecgyhilj38ibD9d/X4bPoBImkBAChibjDwC8ejbUREll5U3IHDdVKNRVxSJLyBCIxJXFCdPQMArqJJil7UXIFY1CzNyCkIvQCxqlurkxMZegKj5NUlxP5pG/VqdhK6V9gPE0rBtkJEnIEzbxsyT4RPjsdG4kYcZeQICm3QSRZW7WrN8NYidwSfBa0zsDH7Rop4n8HfNQRTeygTu/ipBGMw3WBHSD4BYQolYSbn3LGHg9XIytwNTuaLCL5Hy+h/AB+gGXu3W1e4lhN8DcvAsRoDEv2MNXb+t+yyB62ks9wN4DlyHgmB0Bw4ROOCFy++q7UWzbXCxMuMFiGQ3I7ocbuEYzoOI09OGaw8Z5CcsxWUQ69ExuhBiYEL8CdguQSTjD8cUHTYoX5g3WZuiwZ9w7RzEYsIh13NvZUSgVDD769lAeeCNeaEOinzfObwQnhsv77ioAD1EMaL6cBNPRUn06P9EKwPviKMKyPezeYpqA7E8FGX0oyqWCL1Vy6CMhOPqcEPbVXuVaO7+3mQr8DwX2xXsWpzzq3Ww3xyyf2lt5KntinasTVyqDsE7gJCMun0DEPJHPNmuaqdSyeSEjN2GPRafK4DY2K5th5ILRxcgLrZr251Kx4EsiIO/JjZV2hINe1pcV6CUiwlNvQVR7REDQZjGWPRWpZNWHsTROBCrp1IZO3MQ5hFp/RS9KHHAKPUUBFHcUYwa9gE5K/k8AQJE3XZih8VUt9qjhr2CrmqvyOEKwstZl8JCxA8IL5exlT+IKwjj0PYeSmm6dQPhoyGhOmQUIBq3hrknopGdBeHYv/FTZUHmF4R/XmDlFI4CBBxu7KZUZxk/IEyid/sohXRk9yDAbFZuSjrh0hMIz3rLQD3xrwDhl5HNdlocChDwngP3pJCm7xmET7alYqbbexAeLUlo9pQCBPbI7afi03kG4c0EVHWh8hGEL5ZEYHA0RxmU7klvqeTsrAThhwPUoGHcQJjtH+2J9EeMXxBeDKDq65TPILAHURJca9L5CML9tkE05xgPIEwyGPVCcikKm0G4790wGDnvQDi+bYPLJCiUAuF25Ck3sSAeQLg832Afxhx+QdTkKei7ArVoqQYQ7poSkvmepUGkjn4S1HjAeACBdRMPWJbmqnUNCDdHUKnMvmognFzWb+2U8b8gHPwk2jtt/S5/xMa1XuKWF6VtECPHPgmu4/+XAeGYLaHtzGkGoZ1Y2YaYWtS5Egg8dWaBhiK906AlQcSuxBHRmfyWTh0QeOtG42BhK3Z1DQgcuTAdJ0Yr93IgXGgcROH4Sm0QjYc0WBcNWjQfakDgU79J3KeP6hIEnvS5m3jOF9QdiHjWWwOTBhph1tog8ML2+0JiYTurMLIg8LKXBibVDR3UB4H7uAmSXTrpJetB1B6haUWdfg41IPC2XyTIobPeoQEETltIGdmW2N7cp6cNAieoJySCoAOTWgEEXm/60DwoyVqecSuDyE//to/hu8uxQhYE/mc3DSwlk5b8N41qSge9CO19FAGJXoVBJi/2OLAzB2NB9ppGUUoiQXic8Ze3D0pmu25mmZCkMqUvv1+LgpFD53bDoyRTxi8nJpnZlZR/DB1bkVWSzp2ffNAXjCCUoKxVv420VA4RGIe8088iIDRrz6urKLXTFJLTjHfzXVDG9x9dLMrKSvlYiWQXts2CBoSEu9eZDJXSOV9jvYpQWzAoI/zyOXrtUFkl3YNGknE248SERp6pmu8npx5AyGVy4so63UU5jUARR35+N2dhdkxfMa2UlPHRM/F8/BltGCeEsdrjPyi9ArgS4LPD9JhasBTq1dYZPHGSrk7TKNyg66s+HjF2Fd1fJtPTeHTuHQGhLg4jipPleV7ofD4vk8W6H71Avf4DDTPK0/OK1+MAAAAASUVORK5CYII=;" vertex="1" parent="1">
          <mxGeometry x="982" y="731" width="111.56" height="80.71" as="geometry" />
        </mxCell>
      </root>
    </mxGraphModel>
  </diagram>
</mxfile>
